<mxfile host="Electron" agent="Mozilla/5.0 (Macintosh; Intel Mac OS X 10_15_7) AppleWebKit/537.36 (KHTML, like Gecko) draw.io/27.0.9 Chrome/134.0.6998.205 Electron/35.4.0 Safari/537.36" version="27.0.9">
  <diagram name="Page-1" id="pJdUCZhiGt3VQFmkZCZy">
    <mxGraphModel dx="966" dy="748" grid="1" gridSize="10" guides="1" tooltips="1" connect="1" arrows="1" fold="1" page="1" pageScale="1" pageWidth="827" pageHeight="1169" math="0" shadow="0">
      <root>
        <mxCell id="0" />
        <mxCell id="1" parent="0" />
        <mxCell id="rM5HZ_eLtjVZ4c2VB4Eq-8" value="" style="rounded=1;whiteSpace=wrap;html=1;" parent="1" vertex="1">
          <mxGeometry x="260" y="40" width="350" height="600" as="geometry" />
        </mxCell>
        <mxCell id="rM5HZ_eLtjVZ4c2VB4Eq-1" value="" style="rounded=1;whiteSpace=wrap;html=1;fillColor=#dae8fc;strokeColor=#6c8ebf;" parent="1" vertex="1">
          <mxGeometry x="294" y="260" width="296" height="80" as="geometry" />
        </mxCell>
        <mxCell id="rM5HZ_eLtjVZ4c2VB4Eq-2" value="My Question 1 :&amp;nbsp;" style="text;html=1;align=center;verticalAlign=middle;whiteSpace=wrap;rounded=0;" parent="1" vertex="1">
          <mxGeometry x="300" y="275" width="90" height="30" as="geometry" />
        </mxCell>
        <mxCell id="rM5HZ_eLtjVZ4c2VB4Eq-3" value="" style="rounded=0;whiteSpace=wrap;html=1;" parent="1" vertex="1">
          <mxGeometry x="400" y="275" width="120" height="30" as="geometry" />
        </mxCell>
        <mxCell id="rM5HZ_eLtjVZ4c2VB4Eq-4" value="Edit" style="rounded=1;whiteSpace=wrap;html=1;" parent="1" vertex="1">
          <mxGeometry x="540" y="265" width="40" height="25" as="geometry" />
        </mxCell>
        <mxCell id="rM5HZ_eLtjVZ4c2VB4Eq-5" value="Delete" style="rounded=1;whiteSpace=wrap;html=1;" parent="1" vertex="1">
          <mxGeometry x="540" y="300" width="40" height="30" as="geometry" />
        </mxCell>
        <mxCell id="rM5HZ_eLtjVZ4c2VB4Eq-6" value="SurveyComponentEditor" style="rounded=0;whiteSpace=wrap;html=1;fillColor=#fff2cc;strokeColor=#d6b656;" parent="1" vertex="1">
          <mxGeometry x="640" y="230" width="160" height="45" as="geometry" />
        </mxCell>
        <mxCell id="rM5HZ_eLtjVZ4c2VB4Eq-7" style="rounded=0;orthogonalLoop=1;jettySize=auto;html=1;entryX=1.003;entryY=0.138;entryDx=0;entryDy=0;entryPerimeter=0;endArrow=oval;endFill=1;" parent="1" source="rM5HZ_eLtjVZ4c2VB4Eq-6" target="rM5HZ_eLtjVZ4c2VB4Eq-1" edge="1">
          <mxGeometry relative="1" as="geometry" />
        </mxCell>
        <mxCell id="rM5HZ_eLtjVZ4c2VB4Eq-9" value="Survey : My Survey&lt;br&gt;Responsible : John Doe" style="rounded=0;whiteSpace=wrap;html=1;align=left;" parent="1" vertex="1">
          <mxGeometry x="297" y="80" width="203" height="60" as="geometry" />
        </mxCell>
        <mxCell id="rM5HZ_eLtjVZ4c2VB4Eq-25" style="edgeStyle=orthogonalEdgeStyle;rounded=0;orthogonalLoop=1;jettySize=auto;html=1;entryX=0;entryY=0.5;entryDx=0;entryDy=0;" parent="1" source="rM5HZ_eLtjVZ4c2VB4Eq-11" target="rM5HZ_eLtjVZ4c2VB4Eq-24" edge="1">
          <mxGeometry relative="1" as="geometry" />
        </mxCell>
        <mxCell id="rM5HZ_eLtjVZ4c2VB4Eq-11" value="Add a component" style="rounded=1;whiteSpace=wrap;html=1;fillColor=#d5e8d4;strokeColor=#82b366;" parent="1" vertex="1">
          <mxGeometry x="515" y="92.5" width="90" height="35" as="geometry" />
        </mxCell>
        <mxCell id="rM5HZ_eLtjVZ4c2VB4Eq-12" value="" style="rounded=1;whiteSpace=wrap;html=1;fillColor=#dae8fc;strokeColor=#6c8ebf;" parent="1" vertex="1">
          <mxGeometry x="297" y="350" width="296" height="80" as="geometry" />
        </mxCell>
        <mxCell id="rM5HZ_eLtjVZ4c2VB4Eq-13" value="My Question 1 :&amp;nbsp;" style="text;html=1;align=center;verticalAlign=middle;whiteSpace=wrap;rounded=0;" parent="1" vertex="1">
          <mxGeometry x="303" y="365" width="90" height="30" as="geometry" />
        </mxCell>
        <mxCell id="rM5HZ_eLtjVZ4c2VB4Eq-14" value="" style="rounded=0;whiteSpace=wrap;html=1;" parent="1" vertex="1">
          <mxGeometry x="403" y="365" width="120" height="30" as="geometry" />
        </mxCell>
        <mxCell id="rM5HZ_eLtjVZ4c2VB4Eq-23" style="rounded=0;orthogonalLoop=1;jettySize=auto;html=1;entryX=0;entryY=0.25;entryDx=0;entryDy=0;" parent="1" source="rM5HZ_eLtjVZ4c2VB4Eq-15" target="rM5HZ_eLtjVZ4c2VB4Eq-22" edge="1">
          <mxGeometry relative="1" as="geometry" />
        </mxCell>
        <mxCell id="rM5HZ_eLtjVZ4c2VB4Eq-15" value="Edit" style="rounded=1;whiteSpace=wrap;html=1;fillColor=#d5e8d4;strokeColor=#82b366;" parent="1" vertex="1">
          <mxGeometry x="543" y="355" width="40" height="25" as="geometry" />
        </mxCell>
        <mxCell id="rM5HZ_eLtjVZ4c2VB4Eq-16" value="Delete" style="rounded=1;whiteSpace=wrap;html=1;" parent="1" vertex="1">
          <mxGeometry x="543" y="390" width="40" height="30" as="geometry" />
        </mxCell>
        <mxCell id="rM5HZ_eLtjVZ4c2VB4Eq-17" value="" style="rounded=1;whiteSpace=wrap;html=1;fillColor=#dae8fc;strokeColor=#6c8ebf;" parent="1" vertex="1">
          <mxGeometry x="294" y="170" width="296" height="80" as="geometry" />
        </mxCell>
        <mxCell id="rM5HZ_eLtjVZ4c2VB4Eq-18" value="My Question 1 :&amp;nbsp;" style="text;html=1;align=center;verticalAlign=middle;whiteSpace=wrap;rounded=0;" parent="1" vertex="1">
          <mxGeometry x="300" y="185" width="90" height="30" as="geometry" />
        </mxCell>
        <mxCell id="rM5HZ_eLtjVZ4c2VB4Eq-19" value="" style="rounded=0;whiteSpace=wrap;html=1;" parent="1" vertex="1">
          <mxGeometry x="400" y="185" width="120" height="30" as="geometry" />
        </mxCell>
        <mxCell id="rM5HZ_eLtjVZ4c2VB4Eq-20" value="Edit" style="rounded=1;whiteSpace=wrap;html=1;" parent="1" vertex="1">
          <mxGeometry x="540" y="175" width="40" height="25" as="geometry" />
        </mxCell>
        <mxCell id="rM5HZ_eLtjVZ4c2VB4Eq-27" style="rounded=0;orthogonalLoop=1;jettySize=auto;html=1;entryX=0;entryY=0.5;entryDx=0;entryDy=0;" parent="1" source="rM5HZ_eLtjVZ4c2VB4Eq-21" target="rM5HZ_eLtjVZ4c2VB4Eq-26" edge="1">
          <mxGeometry relative="1" as="geometry" />
        </mxCell>
        <mxCell id="rM5HZ_eLtjVZ4c2VB4Eq-21" value="Delete" style="rounded=1;whiteSpace=wrap;html=1;fillColor=#f8cecc;strokeColor=#b85450;" parent="1" vertex="1">
          <mxGeometry x="540" y="210" width="40" height="30" as="geometry" />
        </mxCell>
        <mxCell id="rM5HZ_eLtjVZ4c2VB4Eq-22" value="onClick : SurveyComponentModal" style="rounded=0;whiteSpace=wrap;html=1;fillColor=#fff2cc;strokeColor=#d6b656;" parent="1" vertex="1">
          <mxGeometry x="650" y="340" width="160" height="45" as="geometry" />
        </mxCell>
        <mxCell id="rM5HZ_eLtjVZ4c2VB4Eq-24" value="onClick : SurveyComponentModal" style="rounded=0;whiteSpace=wrap;html=1;fillColor=#fff2cc;strokeColor=#d6b656;" parent="1" vertex="1">
          <mxGeometry x="640" y="87.5" width="160" height="45" as="geometry" />
        </mxCell>
        <mxCell id="rM5HZ_eLtjVZ4c2VB4Eq-26" value="onClick : Modal AreYouSure" style="rounded=0;whiteSpace=wrap;html=1;fillColor=#fff2cc;strokeColor=#d6b656;" parent="1" vertex="1">
          <mxGeometry x="640" y="170" width="160" height="45" as="geometry" />
        </mxCell>
        <mxCell id="WbUbYImGP-WEAsZe8228-1" value="SurveyEditor" style="text;html=1;align=center;verticalAlign=middle;whiteSpace=wrap;rounded=0;fillColor=#fff2cc;strokeColor=#d6b656;" vertex="1" parent="1">
          <mxGeometry x="60" y="300" width="80" height="30" as="geometry" />
        </mxCell>
        <mxCell id="WbUbYImGP-WEAsZe8228-2" style="edgeStyle=orthogonalEdgeStyle;rounded=0;orthogonalLoop=1;jettySize=auto;html=1;entryX=0.009;entryY=0.458;entryDx=0;entryDy=0;entryPerimeter=0;endArrow=oval;endFill=1;" edge="1" parent="1" source="WbUbYImGP-WEAsZe8228-1" target="rM5HZ_eLtjVZ4c2VB4Eq-8">
          <mxGeometry relative="1" as="geometry" />
        </mxCell>
      </root>
    </mxGraphModel>
  </diagram>
</mxfile>
